# AST/ASF file generated using VICON BodyLanguage
# -----------------------------------------------
:version 1.10
:name VICON
:units
  mass 1.0
  length 0.45
  angle deg
:documentation
   .ast/.asf automatically generated from VICON data using
   VICON BodyBuilder and BodyLanguage model FoxedUp or BRILLIANT.MOD
:root
   order TX TY TZ RX RY RZ
   axis XYZ
   position 0 0 0  
   orientation 0 0 0 
:bonedata
  begin
     id 1 
     name lhipjoint
     direction 0.630082 -0.636569 0.44472 
     length 2.82754 
     axis 0 0 0  XYZ
  end
  begin
     id 2 
     name lfemur
     direction 0.34202 -0.939693 0  
     length 7.26371  
     axis 0 0 20  XYZ
    dof rx ry rz
    limits (-160.0 20.0)
           (-70.0 70.0)
           (-60.0 70.0)
  end
  begin
     id 3 
     name ltibia
     direction 0.34202 -0.939693 0   
     length 7.88616   
     axis 0 0 20   XYZ
    dof rx
    limits (-10.0 170.0)
  end
  begin
     id 4 
     name lfoot
     direction 0.0603448 -0.165796 0.984312   
     length 1.77861   
     axis -90 7.62852e-016 20   XYZ
    dof rx rz
    limits (-45.0 90.0)
           (-70.0 20.0)
  end
  begin
     id 5 
     name ltoes
     direction 1.53577e-011 -4.21876e-011 1   
     length 0.902235   
     axis -90 7.62852e-016 20   XYZ
    dof rx
    limits (-90.0 20.0)
  end
  begin
     id 6 
     name rhipjoint
     direction -0.656778 -0.61817 0.431866   
     length 2.9117  
     axis 0 0 0  XYZ 
  end
  begin
     id 7 
     name rfemur
     direction -0.34202 -0.939693 0   
     length 6.81603   
     axis 0 0 -20   XYZ
    dof rx ry rz
    limits (-160.0 20.0)
           (-70.0 70.0)
           (-70.0 60.0)
  end
  begin
     id 8 
     name rtibia
     direction -0.34202 -0.939693 0   
     length 8.05997   
     axis 0 0 -20   XYZ
    dof rx
    limits (-10.0 170.0)
 end
 begin
     id 9 
     name rfoot
     direction -0.0862404 -0.236944 0.967688   
     length 1.84899  
     axis -90 -7.62852e-016 -20   XYZ
    dof rx rz
    limits (-45.0 90.0)
           (-20.0 70.0)
  end
  begin
     id 10 
     name rtoes
     direction -1.53561e-011 -4.21798e-011 1   
     length 0.931579   
     axis -90 -7.62852e-016 -20   XYZ
    dof rx
    limits (-90.0 20.0)
  end
  begin
     id 11 
     name lowerback
     direction -0.0110203 0.991769 -0.127564   
     length 2.05686   
     axis 0 0 0   XYZ
    dof rx ry rz
    limits (-20.0 45.0)
           (-30.0 30.0)
           (-30.0 30.0)
  end
  begin
     id 12 
     name upperback
     direction 0.0109719 0.99993 -0.00432479   
     length 2.06234   
     axis 0 0 0   XYZ
    dof rx ry rz
    limits (-20.0 45.0)
           (-30.0 30.0)
           (-30.0 30.0)
  end
  begin
     id 13 
     name thorax
     direction 0.0173308 0.998351 0.0547306   
     length 2.09856   
     axis 0 0 0   XYZ
    dof rx ry rz
    limits (-20.0 45.0)
           (-30.0 30.0)
           (-30.0 30.0)
  end
  begin
     id 14 
     name lowerneck
     direction -0.0311736 0.989033 0.144366   
     length 1.98151   
     axis 0 0 0   XYZ
    dof rx ry rz
    limits (-20.0 45.0)
           (-30.0 30.0)
           (-30.0 30.0)
  end
  begin
     id 15 
     name upperneck
     direction 0.0421057 0.975772 -0.214698   
     length 2.01457   
     axis 0 0 0   XYZ
    dof rx ry rz
    limits (-20.0 45.0)
           (-30.0 30.0)
           (-30.0 30.0)
  end
  begin
     id 16
     name head
     direction 0.0136911 0.995958 -0.0887718  
     length 2.03562  
     axis 0 0 0   XYZ
    dof rx ry rz
    limits (-20.0 45.0)
           (-30.0 30.0)
           (-30.0 30.0)
  end
  begin
     id 17 
     name lclavicle
     direction 0.915335 0.396201 0.0720134  
     length 4.16217  
     axis 0 0 0   XYZ
    dof ry rz
    limits (-20.0 10.0)
           (0.0 20.0)
  end
  begin
     id 18 
     name lhumerus
     direction 1 -4.48965e-011 6.383e-018   
     length 4.93042   
     axis -180 -30 -90   XYZ
    dof rx ry rz
    limits (-60.0 90.0)
           (-90.0 90.0)
           (-90.0 90.0)
  end
  begin
     id 19
     name lradius
     direction 1 -4.48972e-011 8.8689e-027   
     length 3.68177   
     axis -180 -30 -90   XYZ
    dof rx
    limits (-10.0 170.0)
  end
  begin
     id 20
     name lwrist
     direction 1 -4.48953e-011 1.17971e-026   
     length 1.84089   
     axis -7.69454e-015 90 90   XYZ
    dof ry
    limits (-180.0 0.0)
 end
  begin
     id 21 
     name lhand
     direction 1 -4.49027e-011 2.35802e-026   
     length 0.721479   
     axis -1.50533e-014 90 90   XYZ
    dof rx rz
    limits (-90.0 90.0)
           (-45.0 45.0)
  end
  begin
     id 22 
     name lfingers
     direction 1 -4.48915e-011 4.72027e-026   
     length 0.581675   
     axis -3.01059e-014 90 90   XYZ
    dof rx
    limits (0.0 90.0)
  end
  begin
     id 23
     name lthumb
     direction 0.707107 -6.34948e-011 0.707107   
     length 0.835172   
     axis -90 45 -5.12164e-014   XYZ
    dof rx rz
    limits (-45.0 45.0)
           (-45.0 45.0)
  end
  begin
     id 24 
     name rclavicle
     direction -0.882781 0.469197 0.0234974   
     length 3.95647  
     axis 0 0 0   XYZ 
    dof ry rz
    limits (-10.0 20.0)
           (-20.0 0.0)
  end
  begin
     id 25 
     name rhumerus
     direction -1 -4.48965e-011 -1.54906e-018  
     length 5.07905   
     axis -180 30 90   XYZ
    dof rx ry rz
    limits (-90.0 60.0)
           (-90.0 90.0)
           (-90.0 90.0)
  end
  begin
     id 26 
     name rradius
     direction -1 -4.48972e-011 5.47489e-027   
     length 3.54394   
     axis -180 30 90   XYZ
    dof rx
    limits (-10.0 170.0)
  end
  begin
     id 27 
     name rwrist
     direction -1 -4.48955e-011 1.17969e-026   
     length 1.77197   
     axis -7.69454e-015 -90 -90   XYZ
    dof ry
    limits (-180.0 0.0)
  end
  begin
     id 28
     name rhand
     direction -1 -4.48982e-011 2.35888e-026   
     length 0.681156   
     axis -1.50533e-014 -90 -90   XYZ
    dof rx rz
    limits (-90.0 90.0)
           (-45.0 45.0)
  end
  begin
     id 29
     name rfingers
     direction -1 -4.48955e-011 4.71877e-026   
     length 0.549165   
     axis -3.01059e-014 -90 -90   XYZ
    dof rx
    limits (0.0 90.0)
  end
  begin
     id 30
     name rthumb
     direction -0.707107 -6.3491e-011 0.707107   
     length 0.788495   
     axis -90 -45 5.12164e-014   XYZ
    dof rx rz
    limits (-45.0 45.0)
           (-45.0 45.0)
  end
:hierarchy
  begin
    root lhipjoint rhipjoint lowerback
    lhipjoint lfemur
    lfemur ltibia
    ltibia lfoot
    lfoot ltoes
    rhipjoint rfemur
    rfemur rtibia
    rtibia rfoot
    rfoot rtoes
    lowerback upperback
    upperback thorax
    thorax lowerneck lclavicle rclavicle
    lowerneck upperneck
    upperneck head
    lclavicle lhumerus
    lhumerus lradius
    lradius lwrist
    lwrist lhand lthumb
    lhand lfingers
    rclavicle rhumerus
    rhumerus rradius
    rradius rwrist
    rwrist rhand rthumb
    rhand rfingers
  end

#!OML:ASF H:\Bending\Project 1\Capture day 1\Session 1\Subject.ASF
:FULLY-SPECIFIED
:DEGREES
48
root -11.222 18.217 -16.3718 -136.515 86.976 -149.446
lowerback 17.6596 -0.53751 2.34429
upperback 2.38376 0.0641529 2.02192
thorax -7.33926 0.0617295 0.811935
lowerneck -22.6696 -4.09164 -6.06927
upperneck 31.2146 -4.02146 2.82337
head 14.834 -1.85211 1.48018
rclavicle 7.7526e-015 -8.34896e-015
rhumerus -17.6459 3.66482 -85.8554
rradius 30.6598
rwrist 19.8048
rhand -20.8465 -17.5601
rfingers 7.12502
rthumb 5.52255 -47.4681
lclavicle 7.7526e-015 -8.34896e-015
lhumerus -14.5037 1.88586 92.6744
lradius 24.1148
lwrist 14.4006
lhand -29.9838 7.78993
lfingers 7.12502
lthumb -3.30181 37.7441
rfemur -8.07647 -5.32417 17.4834
rtibia -7.15625e-015
rfoot -3.79706 -13.6378
rtoes -5.32611
lfemur -20.9384 -8.60924 -8.71508
ltibia 22.2216
lfoot -16.8054 3.09431
ltoes 18.4613
49
root -11.2981 18.2243 -16.3745 -137.28 87.0037 -150.893
lowerback 18.8293 -0.554962 2.46953
upperback 2.74285 0.129231 2.01102
thorax -7.58731 0.10126 0.717784
lowerneck -22.4681 -4.06283 -6.11183
upperneck 30.6995 -3.96274 2.76318
head 14.5536 -1.84825 1.46891
rclavicle -1.90833e-014 -5.20816e-014
rhumerus -16.5236 4.3586 -85.8956
rradius 31.0915
rwrist 19.3884
rhand -20.9145 -18.0221
rfingers 7.12502
rthumb 5.45692 -47.9318
lclavicle -1.90833e-014 -5.20816e-014
lhumerus -13.1256 1.26857 92.936
lradius 24.2275
lwrist 14.6402
lhand -29.9068 7.56149
lfingers 7.12502
lthumb -3.22741 37.5168
rfemur -11.7645 -5.36607 17.5537
rtibia 4.83335
rfoot -5.87776 -13.6282
rtoes -3.88545
lfemur -22.151 -8.12104 -8.69973
ltibia 22.4923
lfoot -16.3619 2.81584
ltoes 18.7113
50
root -11.3768 18.2292 -16.3775 -137.943 86.9682 -152.254
lowerback 20.0413 -0.596471 2.65645
upperback 3.08882 0.184222 2.00467
thorax -7.86552 0.134959 0.594482
lowerneck -22.2363 -4.01914 -6.12006
upperneck 30.2197 -3.88931 2.68306
head 14.2841 -1.83552 1.44795
rclavicle -9.74045e-015 -1.66979e-014
rhumerus -15.2883 4.97076 -85.9058
rradius 31.3696
rwrist 19.0018
rhand -21.0518 -18.4441
rfingers 7.12502
rthumb 5.32437 -48.3572
lclavicle -9.74045e-015 -1.66979e-014
lhumerus -11.7002 0.545104 93.18
lradius 24.2658
lwrist 14.9574
lhand -29.9018 7.27925
lfingers 7.12502
lthumb -3.22259 37.2346
rfemur -13.8873 -5.46824 17.5935
rtibia 6.73886
rfoot -6.51275 -13.5371
rtoes -2.98477
lfemur -23.4431 -7.62878 -8.65806
ltibia 22.8422
lfoot -15.9291 2.51043
ltoes 18.7
51
root -11.4558 18.2319 -16.3796 -138.195 86.8786 -153.223
lowerback 21.2716 -0.665415 2.87813
upperback 3.42569 0.220759 2.00989
thorax -8.1561 0.159693 0.467405
lowerneck -22.0128 -3.95455 -6.07751
upperneck 29.7792 -3.79559 2.57721
head 14.0342 -1.81072 1.41272
rclavicle 1.11319e-014 3.69739e-014
rhumerus -13.8869 5.49692 -85.9103
rradius 31.4406
rwrist 18.6579
rhand -21.2569 -18.7391
rfingers 7.12502
rthumb 5.12631 -48.6571
lclavicle 1.11319e-014 3.69739e-014
lhumerus -10.2417 -0.269912 93.3814
lradius 24.2611
lwrist 15.3378
lhand -29.9783 7.00747
lfingers 7.12502
lthumb -3.2965 36.9617
rfemur -15.7563 -5.60173 17.6723
rtibia 8.1187
rfoot -6.78955 -13.4968
rtoes -2.90588
lfemur -24.8092 -7.16766 -8.57213
ltibia 23.271
lfoot -15.5398 2.22246
ltoes 18.4719
52
root -11.5333 18.2331 -16.3802 -138.013 86.7605 -153.782
lowerback 22.5081 -0.754562 3.09044
upperback 3.75965 0.239304 2.03148
thorax -8.4454 0.17716 0.367566
lowerneck -21.8309 -3.87481 -5.99272
upperneck 29.3587 -3.68765 2.44954
head 13.8026 -1.77743 1.36444
rclavicle 1.11319e-014 1.66979e-014
rhumerus -12.3104 5.93635 -85.9126
rradius 31.3053
rwrist 18.3706
rhand -21.4945 -18.8471
rfingers 7.12502
rthumb 4.89691 -48.7705
lclavicle 1.11319e-014 1.66979e-014
lhumerus -8.7464 -1.11858 93.5258
lradius 24.2351
lwrist 15.7169
lhand -30.113 6.81409
lfingers 7.12502
lthumb -3.42655 36.7663
rfemur -17.5294 -5.74527 17.7809
rtibia 9.26519
rfoot -6.84933 -13.5278
rtoes -3.58532
lfemur -26.2312 -6.77334 -8.44341
ltibia 23.7592
lfoot -15.2166 2.00152
ltoes 18.1342
53
root -11.6082 18.2334 -16.3795 -137.701 86.6436 -154.237
lowerback 23.7529 -0.851985 3.25226
upperback 4.0916 0.244889 2.0671
thorax -8.73326 0.190886 0.315441
lowerneck -21.6969 -3.79337 -5.89435
upperneck 28.9214 -3.58072 2.31595
head 13.5764 -1.7438 1.31109
rclavicle 1.90833e-014 6.87795e-014
rhumerus -10.611 6.30379 -85.8995
rradius 31.0283
rwrist 18.1389
rhand -21.7115 -18.7631
rfingers 7.12502
rthumb 4.68735 -48.6912
lclavicle 1.90833e-014 6.87795e-014
lhumerus -7.19881 -1.91396 93.6134
lradius 24.1872
lwrist 16.0058
lhand -30.2563 6.74077
lfingers 7.12502
lthumb -3.565 36.6907
rfemur -19.2941 -5.88977 17.8844
rtibia 10.3494
rfoot -6.81459 -13.61
rtoes -4.67609
lfemur -27.6882 -6.47355 -8.29393
ltibia 24.277
lfoot -14.9638 1.88439
ltoes 17.7923
54
root -11.6803 18.2331 -16.3788 -137.722 86.5516 -155.054
lowerback 25.0177 -0.948636 3.34494
upperback 4.41342 0.241817 2.10511
thorax -9.03421 0.202853 0.308599
lowerneck -21.5833 -3.72382 -5.81602
upperneck 28.4261 -3.49201 2.19971
head 13.335 -1.71814 1.26445
rclavicle -3.97569e-016 -2.8625e-014
rhumerus -8.8775 6.63344 -85.852
rradius 30.7089
rwrist 17.9391
rhand -21.864 -18.5477
rfingers 7.12502
rthumb 4.54008 -48.4791
lclavicle -3.97569e-016 -2.8625e-014
lhumerus -5.58486 -2.57363 93.6573
lradius 24.0975
lwrist 16.1349
lhand -30.3533 6.78337
lfingers 7.12502
lthumb -3.65867 36.7317
rfemur -21.1411 -6.71125 18.198
rtibia 11.4948
rfoot -6.84411 -13.0048
rtoes -5.77098
lfemur -29.1671 -6.27789 -8.15901
ltibia 24.7994
lfoot -14.769 1.87715
ltoes 17.5168
55
root -11.7503 18.2315 -16.3798 -138.472 86.4962 -156.63
lowerback 26.3095 -1.0427 3.38027
upperback 4.71241 0.230899 2.12714
thorax -9.36544 0.212178 0.320397
lowerneck -21.4432 -3.67321 -5.77974
upperneck 27.843 -3.43336 2.12356
head 13.0585 -1.7049 1.23544
rclavicle -6.36111e-015 -1.55052e-014
rhumerus -7.17615 6.96796 -85.7551
rradius 30.4244
rwrist 17.73
rhand -21.939 -18.3113
rfingers 7.12502
rthumb 4.46763 -48.2442
lclavicle -6.36111e-015 -1.55052e-014
lhumerus -3.90011 -3.05983 93.6745
lradius 23.9444
lwrist 16.0968
lhand -30.3684 6.89538
lfingers 7.12502
lthumb -3.67324 36.8435
rfemur -23.0919 -7.51037 18.4596
rtibia 12.7776
rfoot -6.96298 -12.4219
rtoes -6.66973
lfemur -30.6702 -6.16821 -8.07385
ltibia 25.3193
lfoot -14.6102 1.94685
ltoes 17.345
56
root -11.8192 18.2269 -16.3839 -140.128 86.4766 -159.14
lowerback 27.6163 -1.13873 3.38965
upperback 4.98461 0.209552 2.11538
thorax -9.72463 0.216232 0.313933
lowerneck -21.2423 -3.6398 -5.78539
upperneck 27.161 -3.40699 2.09935
head 12.7369 -1.70325 1.22853
rclavicle 3.57812e-015 3.57812e-015
rhumerus -5.48163 7.3361 -85.6034
rradius 30.1721
rwrist 17.4744
rhand -21.9603 -18.1739
rfingers 7.12502
rthumb 4.44706 -48.1072
lclavicle 3.57812e-015 3.57812e-015
lhumerus -2.14286 -3.39788 93.6742
lradius 23.7236
lwrist 15.9575
lhand -30.3018 7.01235
lfingers 7.12502
lthumb -3.60892 36.9615
rfemur -25.1697 -8.31556 18.6646
rtibia 14.223
rfoot -7.16555 -11.8363
rtoes -7.49749
lfemur -32.2113 -6.09632 -8.06334
ltibia 25.8531
lfoot -14.4649 2.02727
ltoes 17.3054
57
root -11.8876 18.2175 -16.3914 -142.578 86.4852 -162.466
lowerback 28.8985 -1.2421 3.40105
upperback 5.25015 0.174753 2.06178
thorax -10.0687 0.213591 0.264328
lowerneck -20.9896 -3.6163 -5.81155
upperneck 26.3847 -3.40713 2.1223
head 12.3751 -1.70906 1.23897
rclavicle -4.37326e-015 1.78906e-014
rhumerus -3.71793 7.71343 -85.4093
rradius 29.9151
rwrist 17.1828
rhand -21.977 -18.2161
rfingers 7.12502
rthumb 4.43102 -48.1498
lclavicle -4.37326e-015 1.78906e-014
lhumerus -0.295663 -3.66572 93.6514
lradius 23.4556
lwrist 15.8341
lhand -30.1879 7.08399
lfingers 7.12502
lthumb -3.49895 37.035
rfemur -27.3746 -9.16651 18.8474
rtibia 15.8159
rfoot -7.40463 -11.2186
rtoes -8.60265
lfemur -33.8021 -5.99496 -8.13721
ltibia 26.4329
lfoot -14.318 2.03927
ltoes 17.4414
58
root -11.9556 18.2018 -16.4012 -145.497 86.5155 -166.264
lowerback 30.1354 -1.35222 3.41668
upperback 5.5365 0.128412 1.97396
thorax -10.3561 0.206653 0.177257
lowerneck -20.7361 -3.59639 -5.82587
upperneck 25.5383 -3.42516 2.17008
head 11.9929 -1.71832 1.25368
rclavicle 8.34896e-015 -1.23246e-014
rhumerus -1.54705 8.11707 -85.1571
rradius 29.3754
rwrist 16.8175
rhand -22.0223 -18.4676
rfingers 7.12502
rthumb 4.38719 -48.4021
lclavicle 8.34896e-015 -1.23246e-014
lhumerus 1.65495 -3.95514 93.5901
lradius 23.1832
lwrist 15.8447
lhand -30.0751 7.09568
lfingers 7.12502
lthumb -3.38999 37.0485
rfemur -29.6781 -10.0759 19.0561
rtibia 17.5208
rfoot -7.63567 -10.5593
rtoes -10.2905
lfemur -35.4357 -5.80032 -8.29247
ltibia 27.0954
lfoot -14.1659 1.91662
ltoes 17.8101
59
root -12.022 18.1795 -16.4116 -148.553 86.5658 -170.164
lowerback 31.2051 -1.46419 3.41031
upperback 5.95339 0.0682996 1.86902
thorax -10.4003 0.201511 0.0855558
lowerneck -20.5849 -3.58039 -5.80299
upperneck 24.5914 -3.46089 2.22778
head 11.5989 -1.73108 1.26149
rclavicle 4.77083e-015 1.90833e-014
rhumerus 1.3208 8.47352 -84.8553
rradius 28.3987
rwrist 16.4374
rhand -22.1108 -18.8796
rfingers 7.12502
rthumb 4.3018 -48.8159
lclavicle 4.77083e-015 1.90833e-014
lhumerus 3.83602 -4.34274 93.4534
lradius 22.9471
lwrist 16.0681
lhand -29.9998 7.07077
lfingers 7.12502
lthumb -3.31729 37.0247
rfemur -32.0096 -11.0088 19.3173
rtibia 19.2877
rfoot -7.84609 -9.87956
rtoes -12.564
lfemur -37.069 -5.47811 -8.52029
ltibia 27.8544
lfoot -14.0103 1.63227
ltoes 18.4409
60
root -12.0855 18.1514 -16.421 -151.56 86.638 -173.954
lowerback 32.4301 -1.58179 3.37103
upperback 6.02163 0.0114035 1.76366
thorax -10.0478 0.198212 0.0124561
lowerneck -20.545 -3.57113 -5.73048
upperneck 23.5688 -3.51227 2.2716
head 11.2041 -1.74837 1.2523
rclavicle -8.74653e-015 -2.38542e-015
rhumerus 3.37892 8.81685 -84.473
rradius 28.4112
rwrist 15.9999
rhand -22.2504 -19.3237
rfingers 7.12502
rthumb 4.167 -49.2627
lclavicle -8.74653e-015 -2.38542e-015
lhumerus 6.19354 -4.83357 93.2291
lradius 22.7957
lwrist 16.5045
lhand -29.9692 7.05145
lfingers 7.12502
lthumb -3.28771 37.0058
rfemur -34.2995 -11.9037 19.6186
rtibia 21.0712
rfoot -8.05724 -9.20984
rtoes -15.0427
lfemur -38.6609 -5.04094 -8.80672
ltibia 28.7011
lfoot -13.8548 1.21667
ltoes 19.2908
61
root -12.1427 18.12 -16.4268 -154.658 86.722 -177.683
lowerback 33.5783 -1.67297 3.22323
upperback 6.56617 -0.0453809 1.66786
thorax -9.89603 0.21107 0.0141312
lowerneck -20.5975 -3.58196 -5.62075
upperneck 22.5191 -3.59778 2.3232
head 10.8244 -1.77694 1.23419
rclavicle 4.37326e-015 3.57812e-015
rhumerus 5.51103 9.00851 -84.1227
rradius 28.4429
rwrist 15.6376
rhand -22.3892 -19.7184
rfingers 7.12502
rthumb 4.03293 -49.66
lclavicle 4.37326e-015 3.57812e-015
lhumerus 8.61721 -5.43169 92.8916
lradius 22.7643
lwrist 17.1083
lhand -29.9607 7.08054
lfingers 7.12502
lthumb -3.27955 37.0351
rfemur -36.399 -12.6644 19.8875
rtibia 22.8732
rfoot -8.35014 -8.62373
rtoes -17.1035
lfemur -40.0976 -4.53684 -9.14352
ltibia 29.6372
lfoot -13.7285 0.700866
ltoes 20.2185
62
root -12.1922 18.0872 -16.429 -158.118 86.7944 -181.583
lowerback 35.1721 -1.77683 3.04856
upperback 6.94263 -0.102124 1.54297
thorax -9.96227 0.22298 0.016732
lowerneck -20.6073 -3.61289 -5.49625
upperneck 21.4855 -3.72346 2.41963
head 10.4509 -1.81747 1.22537
rclavicle 1.43125e-014 1.51076e-014
rhumerus 7.67321 9.05167 -83.8855
rradius 28.3696
rwrist 15.3473
rhand -22.4859 -19.9949
rfingers 7.12502
rthumb 3.9396 -49.9382
lclavicle 1.43125e-014 1.51076e-014
lhumerus 10.919 -6.10644 92.4298
lradius 22.8744
lwrist 17.8109
lhand -29.9389 7.1818
lfingers 7.12502
lthumb -3.25843 37.1366
rfemur -38.2254 -13.2635 20.0505
rtibia 24.6971
rfoot -8.78094 -8.14488
rtoes -18.2195
lfemur -41.3305 -4.05288 -9.51505
ltibia 30.6581
lfoot -13.6604 0.152911
ltoes 21.0305
